<?xml version="1.0" standalone="no"?>
<!DOCTYPE svg PUBLIC "-//W3C//DTD SVG 20010904//EN"
    "http://www.w3.org/TR/2001/REC-SVG-20010904/DTD/svg10.dtd">
<svg version="1.0" xmlns="http://www.w3.org/2000/svg"
     width="609.000000pt" height="609.000000pt" viewBox="0 0 609.000000 609.000000"
     preserveAspectRatio="xMidYMid meet">
    <metadata>
        Created by potrace 1.11, written by Peter Selinger 2001-2013
    </metadata>
    <g transform="translate(0.000000,609.000000) scale(0.100000,-0.100000)"
       fill="#000000" stroke="none">
        <path d="M2769 6086 c-2 -2 -38 -6 -79 -9 -88 -7 -218 -25 -275 -37 -22 -5
-56 -12 -75 -15 -66 -11 -265 -64 -350 -93 -230 -79 -412 -165 -648 -307 -49
-30 -248 -170 -262 -185 -3 -3 -34 -29 -70 -59 -145 -121 -376 -374 -465 -508
-15 -24 -35 -43 -44 -44 -153 -7 -316 -113 -394 -257 -76 -141 -69 -330 18
-467 25 -40 30 -56 24 -80 -25 -106 -49 -228 -55 -275 -3 -30 -9 -82 -14 -115
-12 -95 -9 -419 6 -540 59 -485 248 -929 562 -1322 87 -109 296 -322 380 -388
49 -39 51 -42 53 -92 1 -29 2 -56 3 -60 1 -5 5 -26 10 -48 32 -160 188 -316
356 -354 64 -15 167 -13 230 3 l55 14 50 -56 c243 -273 567 -499 905 -629 152
-59 238 -84 405 -119 136 -28 260 -39 460 -39 184 1 254 5 380 25 92 15 115
20 180 37 33 8 65 16 70 17 40 8 148 45 245 83 336 132 646 349 890 622 62 69
175 218 205 269 16 26 28 32 83 43 175 33 326 170 372 339 41 147 0 333 -95
435 -15 17 -22 35 -19 51 2 13 6 36 9 52 24 130 25 551 1 623 -3 8 -7 33 -10
57 -3 24 -15 82 -26 129 -22 93 -23 74 16 293 13 74 12 504 -1 600 -21 151
-26 183 -35 220 -5 19 -12 49 -14 66 -6 32 -52 198 -63 224 -3 8 -7 20 -8 26
-8 33 -85 214 -135 314 -323 647 -914 1152 -1635 1397 -100 34 -340 97 -405
107 -19 3 -46 8 -60 11 -14 3 -56 10 -95 15 -38 5 -88 12 -110 15 -45 6 -520
16 -526 11z m386 -450 c55 -4 109 -8 120 -10 12 -2 48 -8 80 -12 33 -4 62 -8
65 -9 3 -1 25 -5 50 -9 155 -27 400 -105 572 -182 321 -144 619 -366 838 -624
30 -36 58 -67 61 -70 3 -3 35 -48 72 -100 130 -190 220 -366 287 -569 35 -104
79 -281 80 -319 0 -7 -22 13 -49 45 -204 244 -552 491 -866 615 -179 71 -263
96 -450 133 -71 15 -130 27 -131 28 -51 111 -157 208 -272 249 -70 26 -191 34
-263 19 -135 -29 -267 -131 -328 -255 -18 -36 -38 -66 -46 -66 -15 0 -182 -47
-210 -59 -11 -5 -58 -24 -105 -42 -173 -68 -383 -187 -550 -312 -128 -96 -338
-308 -436 -439 -299 -400 -454 -855 -457 -1338 -1 -206 8 -297 48 -491 l23
-111 -51 48 c-93 90 -171 174 -217 234 -19 25 -38 47 -41 50 -19 16 -145 210
-191 295 -147 274 -225 529 -257 848 -12 128 -5 389 14 487 3 14 7 40 9 57 10
80 30 145 48 154 10 5 18 8 18 5 0 -9 113 34 157 59 23 14 65 48 92 75 148
148 182 368 85 553 l-25 48 38 52 c361 491 996 860 1623 942 30 4 64 9 75 11
11 3 72 7 135 10 63 4 116 7 117 8 3 2 127 -2 238 -8z m875 -1532 c389 -96
726 -305 998 -619 69 -81 186 -262 245 -380 137 -275 199 -552 190 -855 -2
-80 -5 -156 -8 -170 -2 -14 -4 -28 -4 -31 -1 -4 -13 -10 -28 -13 -48 -12 -143
-51 -143 -58 0 -5 -6 -8 -13 -8 -21 0 -102 -77 -141 -133 -48 -70 -82 -168
-85 -245 -1 -17 -15 -29 -67 -52 -237 -109 -455 -167 -697 -185 l-58 -4 85 84
c155 154 258 336 311 555 23 93 28 333 9 438 -79 439 -411 789 -849 896 -189
46 -419 35 -611 -30 -392 -131 -686 -482 -748 -889 -70 -469 148 -913 564
-1150 129 -74 326 -151 497 -196 120 -30 122 -31 253 -54 208 -36 527 -40 735
-10 197 29 432 92 583 156 23 10 42 16 42 14 0 -3 -28 -37 -62 -77 -311 -363
-749 -600 -1223 -662 -119 -16 -406 -14 -520 4 -366 55 -729 219 -990 450
-126 112 -266 268 -266 296 0 11 2 51 5 90 5 94 -7 154 -49 240 -41 83 -110
155 -197 204 l-63 36 -27 107 c-36 147 -52 279 -52 432 0 75 11 236 18 271 2
12 7 39 11 60 55 350 266 746 536 1005 205 196 456 349 723 440 103 35 112 37
124 21 61 -84 165 -155 270 -186 115 -33 285 -5 387 65 53 35 119 104 141 145
20 37 14 37 174 -2z m-370 -1403 c160 -44 293 -180 335 -340 62 -241 -70 -491
-305 -574 -203 -71 -439 9 -556 189 -120 186 -98 436 54 592 63 64 116 97 205
126 80 26 186 29 267 7z"/>
    </g>
</svg>
